<svg  viewBox="0 0 240 192" fill="none" xmlns="http://www.w3.org/2000/svg">
  <g style="mix-blend-mode:multiply" clip-path="url(#clip0_57718_25588)">
    <path d="M95.6784 89.4832C93.247 91.7739 90.0942 92.3766 88.6364 90.8293C87.1787 89.2821 87.968 86.1707 90.3994 83.88C91.4638 82.8772 92.6663 82.198 93.8044 81.8809L104.229 72.3036L108.619 77.2912L97.8766 86.2033C97.4924 87.3204 96.7427 88.4804 95.6784 89.4832Z" fill="#FFB6B6"/>
    <path d="M150.521 188.042L145.496 188.042L143.105 168.658L150.522 168.659L150.521 188.042Z" fill="#FFB6B6"/>
    <path d="M133.304 187.928C133.147 188.192 133.065 189.042 133.065 189.349C133.065 190.291 133.828 191.054 134.77 191.054H150.333C150.976 191.054 151.497 190.533 151.497 189.891V189.243C151.497 189.243 152.267 187.295 150.681 184.895C150.681 184.895 148.712 186.775 145.768 183.831L144.9 182.258L138.616 186.854L135.133 187.283C134.371 187.376 133.696 187.268 133.304 187.928Z" fill="#2F2E41"/>
    <path d="M185.776 185.188L180.835 186.105L174.945 167.484L182.238 166.13L185.776 185.188Z" fill="#FFB6B6"/>
    <path d="M168.827 188.22C168.722 188.507 168.796 189.359 168.852 189.66C169.024 190.586 169.914 191.197 170.84 191.025L186.141 188.184C186.773 188.066 187.19 187.459 187.073 186.827L186.954 186.19C186.954 186.19 187.356 184.135 185.359 182.064C185.359 182.064 183.765 184.272 180.334 181.915L179.193 180.528L173.854 186.193L170.508 187.251C169.776 187.482 169.092 187.499 168.827 188.22Z" fill="#2F2E41"/>
    <path d="M173.462 92.2486L185.84 175.125L174.317 176.628L154.277 110.997L151.772 178.632H141.033C141.033 178.632 131.756 103.983 134.5 94.9655C137.244 85.9476 173.462 92.2486 173.462 92.2486Z" fill="#2F2E41"/>
    <path d="M146.762 25.8281H158.786L160.54 30.0866C160.54 30.0866 167.554 34.0946 167.554 35.5975C167.554 37.1005 171.812 74.9257 171.812 74.9257L174.067 95.717C174.067 95.717 147.764 108.993 134.739 95.4665L137.244 72.4207C137.244 72.4207 135.24 36.349 136.242 34.846C137.244 33.3431 144.758 29.8361 144.758 29.8361L146.762 25.8281Z" fill="#FFBF45"/>
    <path d="M143.002 32.291C143.002 32.291 146.666 37.8286 145.51 40.1065C144.354 42.3845 126.31 64.2463 126.31 64.2463L104.539 82.1749L98.1576 76.512L118.664 56.9499L131.914 37.4095C134.022 33.3873 138.573 31.2867 143.002 32.291Z" fill="#FFBF45"/>
    <path d="M184.346 104.267C184.87 107.566 183.592 110.511 181.493 110.844C179.393 111.177 177.267 108.772 176.743 105.473C176.514 104.029 176.63 102.653 177.009 101.534L174.967 87.5256L181.561 86.7072L182.874 100.603C183.581 101.55 184.117 102.823 184.346 104.267Z" fill="#FFB6B6"/>
    <path d="M158.7 32.8388C158.7 32.8388 169.068 30.5183 170.952 36.268C172.836 42.0177 184.154 96.5557 184.154 96.5557L175.532 97.5105L169.057 60.1463L158.7 32.8388Z" fill="#FFBF45"/>
    <path d="M153.186 23.0392C158.896 23.0392 163.524 18.4109 163.524 12.7016C163.524 6.99232 158.896 2.36401 153.186 2.36401C147.477 2.36401 142.849 6.99232 142.849 12.7016C142.849 18.4109 147.477 23.0392 153.186 23.0392Z" fill="#FFB6B6"/>
    <path d="M159.235 21.4792C158.572 21.5115 157.697 21.3852 157.586 20.7309C157.508 20.2694 157.897 19.8716 158.263 19.5801C158.774 19.1737 159.313 18.7949 159.752 18.3117C160.191 17.8286 160.529 17.2177 160.537 16.565C160.545 15.9123 160.157 15.2314 159.532 15.0414C158.908 14.8515 158.129 15.3158 158.119 15.9684C157.517 15.0542 157.437 13.9022 157.406 12.8081C157.387 12.1678 157.379 11.5272 157.381 10.8866C157.384 10.0115 157.406 9.13662 157.429 8.2618C156.998 8.23915 153.526 9.54577 153.025 9.54577C152.594 9.54577 149.132 8.85861 149.363 7.87249C149.295 8.50276 145.993 9.63803 145.925 9.30813C145.858 8.97824 145.612 8.63005 145.275 8.64975C144.921 8.67052 144.729 9.06327 144.609 9.39765C144.343 10.1442 143.697 11.4344 143.005 11.0488C137.765 8.13041 141.99 7.22146 142.611 6.03463C143.374 4.57572 144.188 3.0579 145.546 2.12718C146.904 1.19646 147.976 0.0851564 149.046 1.33663C151.729 -0.619574 154.392 -0.147706 157.52 0.967791C160.648 2.08329 163.15 4.81263 163.99 8.0255C164.375 9.49818 165.407 10.1444 164.638 11.4582C165.486 12.5945 165.026 11.9516 165.194 13.3591C165.326 14.4696 165.215 15.6418 164.665 16.6151C164.076 17.6549 163.035 18.3783 161.922 18.8119C160.809 19.2454 160.616 21.423 159.434 21.5935" fill="#2F2E41"/>
    <path d="M210.591 183.165C211.626 183.23 212.198 181.944 211.415 181.194L211.337 180.885C211.348 180.86 211.358 180.835 211.368 180.81C212.415 178.314 215.962 178.332 217 180.831C217.921 183.05 219.094 185.272 219.383 187.618C219.512 188.653 219.454 189.708 219.224 190.724C221.383 186.009 222.518 180.861 222.518 175.684C222.518 174.383 222.447 173.082 222.302 171.784C222.182 170.723 222.017 169.668 221.803 168.623C220.648 162.973 218.147 157.592 214.539 153.097C212.804 152.149 211.358 150.667 210.484 148.891C210.17 148.25 209.924 147.561 209.808 146.859C210.005 146.884 210.552 143.878 210.403 143.694C210.678 143.276 211.171 143.069 211.471 142.662C212.965 140.636 215.024 140.99 216.098 143.742C218.394 144.901 218.416 146.823 217.008 148.671C216.112 149.846 215.988 151.437 215.202 152.696C215.283 152.8 215.367 152.9 215.448 153.004C216.932 154.906 218.215 156.951 219.296 159.1C218.991 156.712 219.442 153.835 220.211 151.981C221.087 149.868 222.729 148.089 224.174 146.262C225.911 144.068 229.472 145.026 229.778 147.807C229.78 147.834 229.783 147.861 229.786 147.888C229.571 148.009 229.361 148.137 229.156 148.273C227.984 149.048 228.389 150.865 229.777 151.08L229.809 151.085C229.731 151.858 229.599 152.625 229.404 153.379C231.259 160.551 227.255 163.163 221.538 163.281C221.412 163.345 221.289 163.41 221.163 163.472C221.742 165.102 222.205 166.775 222.548 168.471C222.855 169.969 223.069 171.483 223.188 173.004C223.337 174.923 223.324 176.852 223.162 178.767L223.172 178.7C223.583 176.59 224.729 174.619 226.392 173.254C228.87 171.218 232.37 170.469 235.043 168.833C236.33 168.045 237.979 169.063 237.754 170.555L237.743 170.626C237.345 170.788 236.957 170.975 236.582 171.186C236.367 171.307 236.156 171.436 235.951 171.572C234.779 172.347 235.184 174.164 236.573 174.378L236.604 174.383C236.627 174.386 236.646 174.389 236.669 174.393C235.986 176.014 235.035 177.518 233.844 178.816C232.684 185.077 227.704 185.671 222.376 183.848H222.373C221.79 186.385 220.939 188.863 219.846 191.226H210.818C210.785 191.125 210.756 191.022 210.727 190.921C211.562 190.973 212.403 190.925 213.225 190.773C212.555 189.951 211.885 189.122 211.216 188.3C211.199 188.284 211.186 188.268 211.174 188.252C210.834 187.831 210.491 187.414 210.151 186.993L210.151 186.993C210.13 185.701 210.285 184.414 210.591 183.165Z" fill="#F2F2F2"/>
    <path d="M0 191.404C0 191.734 0.265543 192 0.596215 192H239.215C239.546 192 239.812 191.734 239.812 191.404C239.812 191.073 239.546 190.808 239.215 190.808H0.596215C0.265543 190.808 0 191.073 0 191.404Z" fill="#CCCCCC"/>
    <path d="M53.8516 137.197L53.7836 136.197C55.7382 136.064 57.6979 135.797 59.6082 135.401L59.8112 136.382C57.8564 136.787 55.8514 137.061 53.8516 137.197ZM47.8299 137.108C45.808 136.926 43.8094 136.636 41.8898 136.247L42.089 135.265C43.9726 135.647 45.9345 135.931 47.9199 136.11L47.8299 137.108ZM65.6047 134.76L65.2686 133.816C67.1101 133.161 68.9236 132.371 70.6592 131.469L71.121 132.359C69.3451 133.281 67.4891 134.089 65.6047 134.76ZM36.0851 134.697C34.1658 134.053 32.2946 133.284 30.5237 132.411L30.9665 131.513C32.6975 132.366 34.5266 133.118 36.4036 133.747L36.0851 134.697ZM25.3291 129.375C23.6749 128.241 22.0929 126.977 20.6274 125.617L21.3089 124.882C22.7385 126.209 24.2818 127.442 25.8957 128.548L25.3291 129.375ZM76.2553 129.228L75.6765 128.41C77.2724 127.281 78.8057 126.032 80.2339 124.697L80.9178 125.429C79.4569 126.794 77.8881 128.073 76.2553 129.228ZM16.5252 121.204C15.2786 119.648 14.1293 117.98 13.1097 116.245L13.9738 115.737C14.9689 117.431 16.0905 119.059 17.3071 120.578L16.5252 121.204ZM85.0246 121.033L84.2477 120.4C85.4838 118.882 86.6262 117.266 87.6426 115.598L88.4983 116.119C87.4582 117.826 86.2896 119.48 85.0246 121.033ZM10.4301 110.856C9.66956 109.019 9.02302 107.101 8.50856 105.156L9.47728 104.899C9.98024 106.802 10.6124 108.677 11.3558 110.473L10.4301 110.856ZM91.2707 110.778L90.3519 110.378C91.132 108.585 91.7947 106.72 92.3216 104.835L93.2864 105.105C92.7473 107.034 92.0692 108.943 91.2707 110.778ZM7.3527 99.2528C7.09658 97.2728 6.9657 95.2537 6.96399 93.2521L7.96598 93.2512C7.96769 95.2106 8.09563 97.1867 8.34638 99.1247L7.3527 99.2528ZM94.5042 99.2132L93.5115 99.0782C93.7742 97.1471 93.9073 95.1734 93.9073 93.212L93.907 93.1215H94.909L94.9093 93.2081C94.9093 95.2185 94.773 97.2376 94.5042 99.2132ZM8.33635 87.3772L7.34218 87.25C7.59635 85.2592 7.98164 83.2726 8.48752 81.3459L9.45673 81.6003C8.96185 83.4852 8.58489 85.429 8.33635 87.3772ZM93.4995 87.2573C93.2316 85.3189 92.827 83.3827 92.2976 81.5027L93.262 81.2312C93.804 83.1549 94.2177 85.1364 94.4922 87.1203L93.4995 87.2573ZM11.325 76.0241L10.3983 75.6424C11.1647 73.7816 12.0625 71.9679 13.0665 70.2518L13.9315 70.7577C12.9505 72.4339 12.0735 74.2057 11.325 76.0241ZM90.3179 75.9673C89.5361 74.1796 88.6221 72.4271 87.6013 70.7582L88.456 70.2352C89.5008 71.943 90.436 73.7366 91.236 75.5661L90.3179 75.9673ZM84.1995 65.965C82.9627 64.4517 81.6099 63.0085 80.1786 61.6755L80.8616 60.9421C82.3259 62.3061 83.71 63.7827 84.9755 65.3309L84.1995 65.965ZM17.2537 65.9124L16.4704 65.2876C17.7222 63.7184 19.098 62.232 20.5591 60.8697L21.2426 61.6026C19.8169 62.9316 18.4749 64.3815 17.2537 65.9124ZM75.6131 57.9691C74.0123 56.8412 72.3209 55.8142 70.5858 54.9167L71.0462 54.0267C72.8217 54.9451 74.5524 55.996 76.1905 57.1501L75.6131 57.9691ZM25.8208 57.9263L25.2523 57.101C26.8891 55.9737 28.6345 54.9485 30.4401 54.0534L30.8853 54.9512C29.122 55.825 27.4182 56.826 25.8208 57.9263ZM36.3175 52.7053L35.997 51.7559C37.8577 51.1282 39.8098 50.6029 41.7991 50.1954L42.0002 51.1768C40.0512 51.5763 38.1392 52.0905 36.3175 52.7053ZM65.1881 52.5795C63.3448 51.9276 61.4377 51.398 59.5199 51.0046L59.721 50.0232C61.6838 50.4256 63.6357 50.9677 65.5223 51.6348L65.1881 52.5795ZM47.8291 50.3223L47.7377 49.3248C48.7406 49.2328 49.7717 49.1655 50.8023 49.1249C51.7774 49.1134 52.788 49.1567 53.7591 49.2206L53.6936 50.2206C52.7439 50.158 51.7779 50.1264 50.8222 50.1264C49.8285 50.166 48.815 50.2323 47.8291 50.3223Z" fill="#3F3D56"/>
    <path d="M17.4718 134.205C24.9425 134.205 30.9987 128.148 30.9987 120.678C30.9987 113.207 24.9425 107.151 17.4718 107.151C10.0011 107.151 3.94495 113.207 3.94495 120.678C3.94495 128.148 10.0011 134.205 17.4718 134.205Z" fill="#FFBF45"/>
    <path d="M12.1779 116.142C12.1779 115.723 12.5259 115.384 12.9554 115.384H21.9883C22.4178 115.384 22.7659 115.723 22.7659 116.142V125.213C22.7659 125.632 22.4178 125.972 21.9883 125.972H12.9554C12.5259 125.972 12.1779 125.632 12.1779 125.213V116.142ZM15.4489 124.247V119.466H13.86V124.247H15.4489ZM14.6548 118.813C15.2087 118.813 15.5535 118.446 15.5535 117.987C15.5435 117.518 15.2093 117.161 14.6654 117.161C14.1214 117.161 13.7661 117.519 13.7661 117.987C13.7661 118.446 14.1108 118.813 14.6442 118.813H14.6548ZM17.9027 124.247V121.577C17.9027 121.434 17.9133 121.291 17.9556 121.189C18.0701 120.904 18.3315 120.608 18.7709 120.608C19.346 120.608 19.5756 121.046 19.5756 121.69V124.247H21.1645V121.505C21.1645 120.036 20.3809 119.353 19.3354 119.353C18.4923 119.353 18.1144 119.816 17.9027 120.142V120.159H17.8921L17.9027 120.142V119.466H16.3145C16.3343 119.915 16.3145 124.247 16.3145 124.247H17.9027Z" fill="white"/>
    <path d="M57.4174 63.3835C64.8881 63.3835 70.9443 57.3273 70.9443 49.8566C70.9443 42.3859 64.8881 36.3297 57.4174 36.3297C49.9467 36.3297 43.8905 42.3859 43.8905 49.8566C43.8905 57.3273 49.9467 63.3835 57.4174 63.3835Z" fill="#FFBF45"/>
    <path fill-rule="evenodd" clip-rule="evenodd" d="M57.5901 47.4061C58.3301 46.4053 59.1483 45.6174 60.1945 45.6174C62.1698 45.6174 63.7966 48.1317 63.7974 51.1253C63.7974 52.9514 63.0111 54.0958 61.5988 54.0958C60.3684 54.0958 59.689 53.4052 58.4697 51.3653L57.9378 50.4698L57.8437 50.3127C57.705 50.0783 57.5641 49.8452 57.4211 49.6134L56.4817 51.272C55.1476 53.6045 54.3964 54.0958 53.3533 54.0958C51.9036 54.0958 51.0376 52.9674 51.0376 51.178C51.0376 48.3191 52.6285 45.6174 54.7042 45.6174C54.9586 45.6174 55.2026 45.6485 55.441 45.7147C55.6882 45.7833 55.9283 45.8902 56.1691 46.0393C56.6292 46.3256 57.0893 46.7689 57.5901 47.4061ZM58.799 49.1796C58.5981 48.8526 58.4051 48.552 58.2193 48.2761L58.2145 48.2697C58.8883 47.229 59.445 46.7115 60.106 46.7115C61.48 46.7115 62.5797 48.7346 62.5797 51.2194C62.5797 52.1668 62.2687 52.7162 61.6267 52.7162C61.0103 52.7162 60.7161 52.3095 59.5454 50.4276L58.7982 49.1796H58.799ZM54.902 47.0177C55.4801 47.0975 56.0064 47.5233 56.768 48.6134C56.3285 49.2863 55.8939 49.9622 55.4642 50.6413C54.382 52.3366 54.008 52.717 53.406 52.717C52.7864 52.717 52.4172 52.1732 52.4172 51.2019C52.4172 49.127 53.4522 47.0042 54.6867 47.0042C54.7592 47.0042 54.831 47.009 54.902 47.0185V47.0177Z" fill="white"/>
    <path d="M13.8875 84.7797C21.3582 84.7797 27.4144 78.7235 27.4144 71.2528C27.4144 63.7821 21.3582 57.726 13.8875 57.726C6.41679 57.726 0.360596 63.7821 0.360596 71.2528C0.360596 78.7235 6.41679 84.7797 13.8875 84.7797Z" fill="#FFBF45"/>
    <path d="M11.7044 76.0245C16.1367 76.0245 18.5613 72.352 18.5613 69.1728C18.5613 69.07 18.5613 68.9658 18.5569 68.863C19.0289 68.5213 19.4363 68.0982 19.76 67.6136C19.3191 67.8081 18.8518 67.9362 18.3734 67.9939C18.8773 67.6927 19.2548 67.2187 19.4356 66.6601C18.9621 66.9406 18.4439 67.1375 17.9036 67.2422C16.9917 66.271 15.4652 66.223 14.494 67.1349C13.8668 67.7238 13.6008 68.6021 13.7958 69.44C11.8581 69.3428 10.0526 68.428 8.82836 66.9229C8.19056 68.0245 8.51754 69.432 9.57563 70.1395C9.19358 70.1266 8.81993 70.024 8.48481 69.84V69.8731C8.48617 71.0194 9.29361 72.0066 10.4169 72.2353C10.2101 72.2923 9.99641 72.3207 9.7819 72.3197C9.63067 72.3202 9.47975 72.3062 9.33119 72.2779C9.64691 73.2592 10.5518 73.931 11.5826 73.9493C10.7285 74.6201 9.67356 74.9839 8.58758 74.9821C8.39623 74.983 8.20501 74.9719 8.01501 74.9491C9.11722 75.6518 10.3973 76.0249 11.7044 76.0245Z" fill="white"/>
    <path d="M62.5873 149.064C70.058 149.064 76.1142 143.008 76.1142 135.537C76.1142 128.067 70.058 122.01 62.5873 122.01C55.1166 122.01 49.0604 128.067 49.0604 135.537C49.0604 143.008 55.1166 149.064 62.5873 149.064Z" fill="#FFBF45"/>
    <path d="M62.5873 129.768C61.0217 129.768 60.8248 129.775 60.2097 129.803C59.5945 129.832 59.1756 129.928 58.8085 130.071C58.4235 130.216 58.0747 130.443 57.7866 130.737C57.4932 131.025 57.266 131.374 57.121 131.758C56.9782 132.125 56.8809 132.544 56.8527 133.157C56.8253 133.774 56.8181 133.97 56.8181 135.538C56.8181 137.104 56.8253 137.3 56.8527 137.916C56.8816 138.53 56.9782 138.949 57.121 139.316C57.2688 139.695 57.4657 140.017 57.7866 140.338C58.1068 140.659 58.4284 140.856 58.8078 141.004C59.1756 141.146 59.5938 141.244 60.2082 141.272C60.8241 141.299 61.0203 141.306 62.5873 141.306C64.1544 141.306 64.3498 141.299 64.9657 141.272C65.5794 141.243 65.9998 141.146 66.3669 141.004C66.7516 140.859 67.1001 140.632 67.388 140.338C67.7089 140.017 67.9058 139.695 68.0536 139.316C68.1957 138.949 68.2931 138.53 68.3219 137.916C68.3493 137.3 68.3565 137.104 68.3565 135.537C68.3565 133.97 68.3493 133.774 68.3219 133.158C68.2931 132.544 68.1957 132.125 68.0536 131.758C67.9086 131.374 67.6815 131.025 67.388 130.737C67.1 130.443 66.7512 130.216 66.3661 130.071C65.9984 129.928 65.5786 129.831 64.9649 129.803C64.3491 129.775 64.1537 129.768 62.5859 129.768H62.5873ZM62.0703 130.808H62.588C64.1284 130.808 64.3109 130.813 64.9188 130.841C65.4813 130.866 65.7871 130.961 65.9904 131.039C66.2594 131.144 66.452 131.269 66.6539 131.471C66.8558 131.673 66.9806 131.865 67.0851 132.135C67.1645 132.338 67.2582 132.643 67.2834 133.206C67.3116 133.814 67.3173 133.996 67.3173 135.536C67.3173 137.075 67.3116 137.259 67.2834 137.867C67.2582 138.429 67.1637 138.734 67.0851 138.937C66.9926 139.188 66.845 139.414 66.6532 139.6C66.4512 139.802 66.2594 139.927 65.9897 140.031C65.7878 140.111 65.482 140.205 64.9188 140.231C64.3109 140.258 64.1284 140.264 62.588 140.264C61.0477 140.264 60.8645 140.258 60.2566 140.231C59.6941 140.205 59.389 140.111 59.1856 140.031C58.935 139.939 58.7083 139.792 58.5222 139.6C58.3302 139.414 58.1823 139.187 58.0895 138.937C58.0109 138.734 57.9164 138.428 57.8912 137.866C57.8638 137.258 57.858 137.075 57.858 135.534C57.858 133.994 57.8638 133.812 57.8912 133.204C57.9171 132.642 58.0109 132.336 58.0902 132.133C58.1948 131.864 58.3203 131.671 58.5222 131.469C58.7241 131.267 58.9159 131.143 59.1856 131.038C59.389 130.959 59.6941 130.865 60.2566 130.839C60.7888 130.814 60.995 130.807 62.0702 130.807L62.0703 130.808ZM65.6673 131.766C65.285 131.766 64.975 132.076 64.975 132.458C64.975 132.84 65.285 133.15 65.6673 133.15C66.0497 133.15 66.3596 132.84 66.3596 132.458C66.3596 132.076 66.0497 131.766 65.6673 131.766ZM62.588 132.575C60.9517 132.549 59.6045 133.855 59.579 135.491C59.5534 137.128 60.8592 138.475 62.4956 138.5C62.5264 138.501 62.5572 138.501 62.588 138.5C64.2244 138.475 65.5302 137.128 65.5047 135.491C65.4797 133.891 64.1884 132.6 62.588 132.575ZM62.588 133.614C63.6502 133.614 64.5117 134.474 64.5122 135.536C64.5126 136.599 63.6519 137.46 62.5897 137.461H62.588C61.5258 137.461 60.6647 136.599 60.6647 135.537C60.6647 134.475 61.5258 133.614 62.588 133.614Z" fill="white"/>
  </g>
  <defs>
    <clipPath id="clip0_57718_25588">
      <rect width="239.812" height="192" fill="white"/>
    </clipPath>
  </defs>
</svg>
