<svg viewBox="0 0 168 192" fill="none" xmlns="http://www.w3.org/2000/svg">
  <g clip-path="url(#clip0_57718_27523)">
    <path d="M80.5652 180.119L80.3512 175.302C80.329 175.291 80.3067 175.279 80.2844 175.267C77.9918 174.063 75.3643 176.243 76.0965 178.73C76.7855 181.069 77.2484 183.591 78.5096 185.639C79.2547 186.829 80.2577 187.835 81.444 188.584C82.6304 189.332 83.9698 189.804 85.3629 189.964L88.2757 191.749C88.6754 189.518 88.5872 187.227 88.0174 185.033C87.4475 182.84 86.4095 180.796 84.9748 179.043C84.1602 178.067 83.2262 177.198 82.1947 176.456C81.4971 178.298 80.5652 180.119 80.5652 180.119Z" fill="#F2F2F2"/>
    <path d="M54.487 131.235C48.8793 125.444 40.7528 122.123 32.1914 122.123L31.8612 122.124C26.222 122.126 20.6834 120.628 15.812 117.784L15.305 117.488L15.7133 117.067C17.9237 114.777 19.7694 112.161 21.1857 109.309C20.1798 110.248 18.9801 110.955 17.6714 111.378C16.3628 111.801 14.9772 111.931 13.6128 111.759C12.1722 111.587 10.7893 111.091 9.56772 110.307C8.34611 109.524 7.31755 108.473 6.55917 107.235C3.56687 102.374 0 95.476 0 90.2211C0.00465798 85.7794 0.933463 81.3874 2.72722 77.325C4.52097 73.2627 7.14032 69.6191 10.4183 66.6265C12.4936 64.7528 14.1512 62.4623 15.283 59.9042C16.4149 57.3461 16.9956 54.5779 16.9873 51.7799L16.9857 51.3818C16.9851 47.6982 17.4347 44.0283 18.3243 40.454L18.4147 40.0931L18.7856 40.1061C21.1772 40.1876 23.5701 39.9868 25.9149 39.508C23.7155 39.2379 21.5639 38.6649 19.5211 37.8053L19.1221 37.6436L19.2575 37.2343C28.5914 31.4476 49.6607 34.4442 61.8899 6.42828C71.8062 -16.2888 106.794 26.5943 106.794 51.3818C106.794 53.9111 104.294 57.2534 106.166 58.9251C126.395 76.9966 112.437 88.6009 108.036 100.278C106.992 103.048 109.256 106.09 109.256 109.087C109.256 109.595 109.243 110.12 109.218 110.647L109.179 111.457L108.504 111.008C107.17 110.132 105.933 109.117 104.815 107.977C105.975 110.651 106.521 113.55 106.415 116.463C106.308 119.376 105.55 122.228 104.197 124.808C102.077 128.815 100.026 131.683 98.101 133.333C91.9344 138.617 83.985 141.343 75.8781 140.953C67.7711 140.563 60.1193 137.086 54.487 131.235Z" fill="#E6E6E6"/>
    <path d="M88.3563 191.512C88.4941 191.512 88.6273 191.462 88.7313 191.371C88.8354 191.281 88.9034 191.155 88.9228 191.019C88.9472 190.848 91.3316 173.628 89.1901 150.743C87.2124 129.608 80.8612 99.1664 61.8356 74.1651C61.79 74.105 61.7331 74.0546 61.668 74.0166C61.6029 73.9786 61.531 73.9538 61.4564 73.9437C61.3818 73.9335 61.3059 73.9382 61.2331 73.9575C61.1603 73.9767 61.0919 74.0102 61.032 74.0559C60.9721 74.1016 60.9218 74.1587 60.884 74.2239C60.8461 74.289 60.8215 74.3611 60.8114 74.4358C60.8014 74.5105 60.8062 74.5865 60.8255 74.6594C60.8448 74.7323 60.8783 74.8007 60.924 74.8606C79.7854 99.646 86.0853 129.864 88.0491 150.85C90.1782 173.602 87.8124 190.687 87.7883 190.857C87.7768 190.938 87.7829 191.021 87.8061 191.1C87.8294 191.179 87.8693 191.252 87.9232 191.314C87.977 191.376 88.0436 191.426 88.1183 191.46C88.193 191.494 88.2742 191.512 88.3563 191.512Z" fill="#3F3D56"/>
    <path d="M72.8302 109.431C72.9512 109.431 73.0692 109.392 73.1672 109.321C73.2651 109.25 73.3381 109.15 73.3755 109.034C73.413 108.919 73.413 108.795 73.3757 108.68C73.3383 108.564 73.2654 108.464 73.1675 108.393C73.0985 108.343 66.1383 103.321 55.733 99.5062C46.1141 95.9801 31.4871 92.7834 16.4289 97.5821C16.3571 97.6049 16.2905 97.6416 16.2328 97.6901C16.1752 97.7387 16.1277 97.7982 16.093 97.8651C16.0584 97.9321 16.0373 98.0052 16.0309 98.0804C16.0245 98.1555 16.0329 98.2312 16.0558 98.303C16.0786 98.3749 16.1154 98.4416 16.164 98.4992C16.2126 98.5568 16.272 98.6043 16.339 98.6388C16.4059 98.6734 16.479 98.6945 16.554 98.7008C16.6291 98.707 16.7046 98.6984 16.7764 98.6754C31.5261 93.9753 45.888 97.1191 55.339 100.584C65.5958 104.344 72.426 109.272 72.4938 109.321C72.5915 109.392 72.7093 109.431 72.8302 109.431Z" fill="#3F3D56"/>
    <path d="M99.0551 44.0296C99.0639 43.9087 99.0343 43.7881 98.9704 43.6852C98.9066 43.5822 98.8118 43.5021 98.6997 43.4564C98.5876 43.4107 98.4639 43.4017 98.3464 43.4308C98.2289 43.4598 98.1236 43.5253 98.0456 43.6179C97.9906 43.6833 92.4873 50.2727 87.938 60.3897C83.7329 69.7421 79.4953 84.1198 83.1909 99.504C83.2264 99.6519 83.3192 99.7797 83.4488 99.8591C83.5784 99.9386 83.7342 99.9632 83.8819 99.9276C84.0297 99.892 84.1572 99.7991 84.2366 99.6694C84.3159 99.5396 84.3405 99.3836 84.305 99.2357C80.6854 84.1667 84.8512 70.05 88.983 60.8608C93.4674 50.8882 98.8677 44.4218 98.9217 44.3576C98.9997 44.2652 99.0464 44.1503 99.0551 44.0296Z" fill="#3F3D56"/>
    <path d="M98.2797 73.6134C98.7631 77.519 101.466 80.7392 105.396 80.7392C107.284 80.7392 109.094 79.9884 110.428 78.6521C111.763 77.3158 112.513 75.5033 112.513 73.6134C112.513 69.678 109.31 66.8516 105.396 66.4877C101.244 66.1017 97.659 68.5992 98.2797 73.6134Z" fill="#2F2E41"/>
    <path d="M108.692 188.373L111.402 188.373L112.691 177.906L108.692 177.907L108.692 188.373Z" fill="#FFB6B6"/>
    <path d="M108.597 191.204L116.931 191.204V191.098C116.931 190.237 116.589 189.411 115.981 188.802C115.372 188.192 114.547 187.85 113.687 187.85L112.165 186.694L109.324 187.85L108.597 187.85L108.597 191.204Z" fill="#2F2E41"/>
    <path d="M98.0175 188.373L100.728 188.373L102.017 177.906L98.017 177.907L98.0175 188.373Z" fill="#FFB6B6"/>
    <path d="M97.9223 191.204L106.256 191.204V191.098C106.256 190.237 105.914 189.411 105.306 188.802C104.698 188.192 103.873 187.85 103.012 187.85L101.49 186.694L98.6496 187.85L97.9221 187.85L97.9223 191.204Z" fill="#2F2E41"/>
    <path d="M118.018 122.819L119.934 129.397L117.677 157.254C117.677 157.254 118.839 158.996 118.018 158.996C117.197 158.996 116.144 159.382 116.807 160.422C117.471 161.462 115.203 165.197 115.203 165.197L111.996 185.032L107.91 184.972C107.91 184.972 105.833 183.813 106.999 182.641C108.165 181.469 108.986 181.469 107.891 180.373C106.796 179.277 106.796 179.607 106.796 178.757C106.796 177.906 105.699 167.515 108.3 163.53L107.517 147.279L105.67 163.219L101.869 184.484L97.9327 184.451C97.9327 184.451 96.1145 182.697 96.1179 181.398C96.1212 180.099 97.2412 179.991 96.4075 179.223C95.5738 178.454 95.5738 166.652 98.0372 160.092C98.0372 160.092 99.4307 156.427 98.0341 155.171C96.6374 153.915 98.0323 152.478 98.0323 152.478C98.0323 152.478 100.244 151.677 98.0303 149.37C95.8163 147.063 98.0184 130.747 98.0184 130.747C98.0184 130.747 95.598 124.161 98.0493 121.572C100.501 118.982 118.018 122.819 118.018 122.819Z" fill="#2F2E41"/>
    <path d="M83.8933 134.152L87.3118 125.88L90.0051 127.378L88.3785 135.793C88.5414 136.326 88.5526 136.894 88.4108 137.433C88.2689 137.972 87.9797 138.461 87.5756 138.844C87.1716 139.228 86.6687 139.491 86.1235 139.604C85.5783 139.717 85.0124 139.675 84.4894 139.484C83.9664 139.293 83.5072 138.959 83.1632 138.521C82.8192 138.082 82.6041 137.557 82.5422 137.003C82.4803 136.449 82.5739 135.888 82.8126 135.385C83.0513 134.881 83.4255 134.454 83.8933 134.152Z" fill="#FFB6B6"/>
    <path d="M141.256 68.7401L136.055 76.0213L133.771 73.9511L137.259 66.1242C137.221 65.5681 137.339 65.0123 137.599 64.5194C137.859 64.0265 138.251 63.616 138.731 63.3341C139.212 63.0522 139.761 62.91 140.318 62.9236C140.874 62.9372 141.416 63.106 141.882 63.411C142.348 63.716 142.72 64.1451 142.956 64.6501C143.192 65.1551 143.282 65.716 143.217 66.2697C143.152 66.8233 142.934 67.3479 142.588 67.7843C142.241 68.2207 141.78 68.5517 141.256 68.7401Z" fill="#FFB6B6"/>
    <path d="M118.534 123.493C121.908 128.733 104.95 135.383 98.4427 132.713C97.3033 132.246 93.3839 130.702 96.0629 128.561C98.7419 126.42 95.7523 126.119 95.6816 124.726C95.6344 123.794 96.3547 121.751 95.6031 121.838C94.8516 121.926 93.9719 120.637 95.6088 120.083C97.2456 119.529 95.6263 119.023 95.6406 118.497C95.7972 112.754 100.198 103.619 100.198 103.619L92.2682 123.915C92.2682 123.915 92.3268 127.426 91.3155 126.353C90.3043 125.28 90.3779 128.753 90.3779 128.753C90.3779 128.753 88.8742 129.804 89.7389 130.389C90.6036 130.974 88.808 132.771 88.808 132.771L84.6184 132.472C84.6184 132.472 84.684 129.356 85.3993 128.666C86.1147 127.977 85.7633 126.893 85.7633 126.893C85.7633 126.893 87.6258 125.242 86.3772 123.901C84.7713 122.178 90.6263 93.0609 92.6469 93.3492C92.9326 91.9571 93.5971 90.6712 94.5671 89.6337C95.5371 88.5961 96.7746 87.8473 98.1431 87.4701L102.668 86.2225L103.472 83.0304H109.843L110.953 85.1279L115.797 87.3167C116.71 86.0276 117.392 84.6693 121.128 84.2289C121.128 84.2289 131.196 75.0568 130.704 74.3406C130.213 73.6244 131.773 71.9477 131.773 71.9477C131.773 71.9477 133.106 71.5109 132.354 71.2777C131.602 71.0445 133.023 70.5053 133.023 70.5053C133.023 70.5053 134.34 70.1589 133.719 69.7028C133.098 69.2467 135.791 68.947 135.791 68.947L139.286 71.8019L138.58 73.0011C138.58 73.0011 139.01 74.6339 138.448 74.0378C137.886 73.4417 137.78 75.1717 137.78 75.1717C137.78 75.1717 137.493 77.066 135.791 77.6367C134.089 78.2075 132.799 83.6296 132.799 83.6296C128.785 88.8553 124.048 92.9318 118.435 95.6154C120.622 98.1298 118.534 123.493 118.534 123.493Z" fill="#FFBF45"/>
    <path d="M106.183 81.1622C109.668 81.1622 112.493 78.3332 112.493 74.8434C112.493 71.3537 109.668 68.5247 106.183 68.5247C102.698 68.5247 99.8722 71.3537 99.8722 74.8434C99.8722 78.3332 102.698 81.1622 106.183 81.1622Z" fill="#FFB6B6"/>
    <path d="M99.6482 75.5319C99.848 76.905 101.017 78.8207 100.743 78.8207C100.469 78.8207 98.5233 73.1603 100.469 72.7912C101.881 72.5235 102.196 72.7583 103.516 72.1855L103.33 72.361C104.203 72.9968 105.418 72.6049 106.414 72.191C107.413 71.7799 108.626 71.388 109.502 72.0211C110.052 72.4185 110.285 73.1092 110.627 73.6957C110.969 74.2849 111.601 74.8412 112.253 74.6604C112.775 74.5151 113.076 73.9286 113.074 73.386C113.071 72.8433 112.365 72.3271 112.603 71.8402C113.307 70.3974 112.674 69.414 111.139 68.7351C110.58 68.6501 110.022 68.5633 109.463 68.4747C109.756 68.0689 110.111 67.7119 110.515 67.4168C110.344 66.9789 110.049 66.6006 109.666 66.3288C109.22 66.0629 108.667 66.0821 108.15 66.1095C106.995 66.1698 105.84 66.2301 104.687 66.2904C103.833 66.3342 102.949 66.3863 102.186 66.7782C101.233 67.2688 100.609 68.2253 100.155 69.1982C99.1364 71.3853 99.2978 73.1448 99.6482 75.5319Z" fill="#2F2E41"/>
    <path d="M73.3965 191.916L135.461 192C135.547 192 135.63 191.966 135.691 191.904C135.752 191.843 135.786 191.76 135.786 191.674C135.786 191.587 135.752 191.504 135.691 191.443C135.63 191.382 135.547 191.347 135.461 191.347L73.3965 191.263C73.31 191.263 73.2271 191.298 73.166 191.359C73.1049 191.42 73.0706 191.503 73.0706 191.59C73.0706 191.676 73.1049 191.759 73.166 191.82C73.2271 191.881 73.31 191.916 73.3965 191.916Z" fill="#CACACA"/>
    <path d="M50.9494 163.47C51.0638 162.683 50.2402 161.911 49.1098 161.746C47.9793 161.582 46.9702 162.086 46.8558 162.874C46.7414 163.661 47.565 164.433 48.6954 164.598C49.8258 164.762 50.835 164.258 50.9494 163.47Z" fill="#E6E6E6"/>
    <path d="M64.4082 162.155C64.5226 161.368 63.699 160.596 62.5685 160.431C61.4381 160.267 60.429 160.771 60.3146 161.559C60.2002 162.346 61.0238 163.118 62.1542 163.283C63.2846 163.447 64.2938 162.943 64.4082 162.155Z" fill="#3F3D56"/>
    <path d="M47.2639 152.56C47.3784 151.773 46.5547 151.001 45.4243 150.836C44.2939 150.672 43.2848 151.176 43.1704 151.964C43.0559 152.751 43.8796 153.523 45.01 153.688C46.1404 153.852 47.1495 153.347 47.2639 152.56Z" fill="#FF6584"/>
    <path d="M41.4158 148.091C41.4212 147.368 41.0185 146.779 40.5163 146.775C40.0141 146.772 39.6026 147.355 39.5971 148.077C39.5916 148.8 39.9943 149.389 40.4966 149.393C40.9988 149.397 41.4103 148.814 41.4158 148.091Z" fill="#E6E6E6"/>
    <path d="M39.4325 139.767C39.438 139.045 39.0353 138.455 38.5331 138.452C38.0309 138.448 37.6193 139.031 37.6139 139.754C37.6084 140.477 38.0111 141.066 38.5133 141.069C39.0155 141.073 39.4271 140.49 39.4325 139.767Z" fill="#3F3D56"/>
    <path d="M54.8548 154.417C54.8603 153.694 54.4576 153.105 53.9554 153.101C53.4532 153.097 53.0416 153.68 53.0362 154.403C53.0307 155.126 53.4334 155.715 53.9356 155.719C54.4378 155.722 54.8494 155.14 54.8548 154.417Z" fill="#E6E6E6"/>
    <path d="M48.351 157.668C48.3565 156.945 47.9538 156.356 47.4515 156.353C46.9493 156.349 46.5378 156.932 46.5323 157.655C46.5269 158.377 46.9296 158.966 47.4318 158.97C47.934 158.974 48.3455 158.391 48.351 157.668Z" fill="#FF6584"/>
    <path d="M57.4046 163.678C57.41 162.955 57.0074 162.366 56.5052 162.362C56.0029 162.358 55.5914 162.941 55.5859 163.664C55.5805 164.387 55.9832 164.976 56.4854 164.98C56.9876 164.984 57.3991 164.401 57.4046 163.678Z" fill="#3F3D56"/>
    <path d="M154.412 121.264C154.527 120.477 153.703 119.705 152.573 119.54C151.442 119.375 150.433 119.88 150.319 120.668C150.204 121.455 151.028 122.227 152.158 122.392C153.289 122.556 154.298 122.051 154.412 121.264Z" fill="#E6E6E6"/>
    <path d="M167.871 119.949C167.986 119.162 167.162 118.39 166.032 118.225C164.901 118.06 163.892 118.565 163.778 119.353C163.663 120.14 164.487 120.912 165.617 121.077C166.748 121.241 167.757 120.736 167.871 119.949Z" fill="#3F3D56"/>
    <path d="M150.727 110.354C150.841 109.566 150.018 108.795 148.887 108.63C147.757 108.465 146.748 108.97 146.633 109.758C146.519 110.545 147.342 111.317 148.473 111.481C149.603 111.646 150.612 111.141 150.727 110.354Z" fill="#FF6584"/>
    <path d="M144.879 105.885C144.884 105.162 144.481 104.573 143.979 104.569C143.477 104.565 143.066 105.148 143.06 105.871C143.055 106.594 143.457 107.183 143.959 107.187C144.462 107.191 144.873 106.608 144.879 105.885Z" fill="#E6E6E6"/>
    <path d="M142.895 97.5612C142.901 96.8384 142.498 96.2493 141.996 96.2455C141.494 96.2417 141.082 96.8246 141.077 97.5475C141.071 98.2703 141.474 98.8594 141.976 98.8632C142.478 98.867 142.89 98.2841 142.895 97.5612Z" fill="#3F3D56"/>
    <path d="M158.318 112.211C158.323 111.488 157.921 110.899 157.418 110.895C156.916 110.891 156.505 111.474 156.499 112.197C156.494 112.92 156.896 113.509 157.399 113.513C157.901 113.516 158.312 112.933 158.318 112.211Z" fill="#E6E6E6"/>
    <path d="M151.814 115.462C151.819 114.739 151.417 114.15 150.914 114.146C150.412 114.142 150.001 114.725 149.995 115.448C149.99 116.171 150.393 116.76 150.895 116.764C151.397 116.768 151.808 116.185 151.814 115.462Z" fill="#FF6584"/>
    <path d="M160.868 121.472C160.873 120.749 160.47 120.16 159.968 120.156C159.466 120.152 159.054 120.735 159.049 121.458C159.043 122.181 159.446 122.77 159.948 122.774C160.451 122.778 160.862 122.195 160.868 121.472Z" fill="#3F3D56"/>
    <path d="M104.323 43.1552C104.438 42.3678 103.614 41.596 102.484 41.4313C101.353 41.2666 100.344 41.7714 100.23 42.5588C100.115 43.3462 100.939 44.118 102.069 44.2827C103.2 44.4474 104.209 43.9426 104.323 43.1552Z" fill="white"/>
    <path d="M117.782 41.8402C117.896 41.0528 117.073 40.281 115.942 40.1164C114.812 39.9517 113.803 40.4565 113.688 41.2439C113.574 42.0313 114.398 42.8031 115.528 42.9677C116.658 43.1324 117.668 42.6276 117.782 41.8402Z" fill="#3F3D56"/>
    <path d="M100.638 32.2451C100.752 31.4577 99.9285 30.6859 98.7981 30.5212C97.6677 30.3566 96.6586 30.8614 96.5441 31.6488C96.4297 32.4361 97.2534 33.208 98.3838 33.3727C99.5142 33.5373 100.523 33.0325 100.638 32.2451Z" fill="#FF6584"/>
    <path d="M94.7895 27.7762C94.795 27.0533 94.3923 26.4643 93.8901 26.4605C93.3879 26.4567 92.9763 27.0396 92.9709 27.7624C92.9654 28.4853 93.3681 29.0744 93.8703 29.0782C94.3725 29.082 94.7841 28.4991 94.7895 27.7762Z" fill="#E6E6E6"/>
    <path d="M92.8063 19.4524C92.8117 18.7295 92.409 18.1404 91.9068 18.1366C91.4046 18.1328 90.9931 18.7157 90.9876 19.4386C90.9821 20.1614 91.3848 20.7505 91.887 20.7543C92.3893 20.7581 92.8008 20.1752 92.8063 19.4524Z" fill="#3F3D56"/>
    <path d="M108.229 34.1018C108.234 33.3789 107.831 32.7898 107.329 32.786C106.827 32.7822 106.415 33.3651 106.41 34.088C106.405 34.8109 106.807 35.3999 107.309 35.4037C107.812 35.4075 108.223 34.8246 108.229 34.1018Z" fill="#E6E6E6"/>
    <path d="M101.725 37.3532C101.73 36.6304 101.327 36.0413 100.825 36.0375C100.323 36.0337 99.9115 36.6166 99.9061 37.3395C99.9006 38.0623 100.303 38.6514 100.806 38.6552C101.308 38.659 101.719 38.0761 101.725 37.3532Z" fill="#FF6584"/>
    <path d="M110.778 43.3629C110.784 42.64 110.381 42.051 109.879 42.0472C109.377 42.0434 108.965 42.6262 108.96 43.3491C108.954 44.072 109.357 44.661 109.859 44.6648C110.361 44.6686 110.773 44.0857 110.778 43.3629Z" fill="#3F3D56"/>
  </g>
  <defs>
    <clipPath id="clip0_57718_27523">
      <rect width="167.882" height="192" fill="white"/>
    </clipPath>
  </defs>
</svg>
